<svg  viewBox="0 0 488 488" fill="none" xmlns="http://www.w3.org/2000/svg">
<path d="M114.738 324.664L237.733 195.487C239.159 197.796 240.747 199.972 242.482 201.996L266.175 228.648C267.895 230.504 269.739 232.21 271.691 233.751L156.858 372.045C154.143 375.399 150.851 378.098 147.182 379.979C143.512 381.86 139.542 382.885 135.511 382.991C131.479 383.096 127.471 382.281 123.728 380.594C119.984 378.907 116.584 376.384 113.733 373.176C110.881 369.969 108.638 366.144 107.139 361.933C105.639 357.722 104.914 353.213 105.008 348.678C105.102 344.143 106.013 339.677 107.685 335.549C109.358 331.421 111.757 327.718 114.738 324.664V324.664Z" fill="black"/>
<path d="M315.272 247.001L320.725 240.867L306.805 225.193C301.598 226.778 296.111 226.793 290.896 225.237C285.682 223.68 280.924 220.606 277.1 216.325L253.408 189.673C247.621 183.164 244.369 174.336 244.368 165.13V154.961L200.733 130.419C207.897 122.36 216.401 115.967 225.761 111.606C235.121 107.245 245.152 105 255.283 105C265.414 105 275.446 107.245 284.806 111.606C294.165 115.967 302.67 122.36 309.833 130.419L331.65 154.961C335.456 159.262 338.189 164.615 339.572 170.48C340.956 176.346 340.943 182.518 339.533 188.377L353.467 204.051L358.92 197.917C359.637 197.111 360.487 196.471 361.423 196.035C362.359 195.599 363.363 195.374 364.376 195.374C365.389 195.374 366.392 195.599 367.328 196.035C368.264 196.471 369.115 197.111 369.831 197.917L380.742 210.191C382.188 211.818 383 214.024 383 216.325C383 218.625 382.188 220.832 380.742 222.459L337.103 271.549C336.387 272.355 335.536 272.995 334.6 273.431C333.664 273.867 332.661 274.092 331.648 274.092C330.635 274.092 329.631 273.867 328.695 273.431C327.759 272.995 326.909 272.355 326.192 271.549L315.281 259.275C314.564 258.47 313.995 257.514 313.606 256.461C313.218 255.409 313.017 254.28 313.016 253.141C313.016 252.001 313.214 250.872 313.601 249.819C313.988 248.765 314.556 247.808 315.272 247.001V247.001Z" fill="black"/>
<path fill-rule="evenodd" clip-rule="evenodd" d="M55 0C24.6243 0 0 24.6243 0 55V433C0 463.376 24.6243 488 55 488H433C463.376 488 488 463.376 488 433V55C488 24.6243 463.376 0 433 0H55ZM68 55C62.4772 55 58 59.4772 58 65V424C58 429.523 62.4771 434 68 434H419C424.523 434 429 429.523 429 424V65C429 59.4772 424.523 55 419 55H68Z" fill="black"/>
</svg>
