<svg width="238" height="22" viewBox="0 0 238 22" fill="none" xmlns="http://www.w3.org/2000/svg">
<path d="M15.344 1.4H22.82V1.932H21.28V20.468H22.82V21H14.28V20.468H15.82V2.968H15.708L11.508 21H8.008L3.08 2.884H2.968V20.468H4.508V21H0.7V20.468H2.24V1.932H0.7V1.4H8.26L11.984 15.82L15.344 1.4ZM32.8396 15.484V13.104C32.8396 11.2933 32.737 9.97733 32.5316 9.156C32.345 8.316 31.897 7.896 31.1876 7.896C30.777 7.896 30.441 8.01733 30.1796 8.26C29.937 8.484 29.7596 8.86667 29.6476 9.408C29.4796 10.248 29.3956 11.5267 29.3956 13.244V15.428C29.3956 17.4627 29.4516 18.6853 29.5636 19.096C29.6943 19.5067 29.825 19.8427 29.9556 20.104C30.161 20.552 30.5623 20.776 31.1596 20.776C31.8876 20.776 32.3636 20.356 32.5876 19.516C32.7556 18.9187 32.8396 17.5747 32.8396 15.484ZM31.1036 21.28C28.7703 21.28 27.0063 20.6827 25.8116 19.488C24.617 18.2933 24.0196 16.5853 24.0196 14.364C24.0196 12.124 24.6543 10.4067 25.9236 9.212C27.2116 7.99867 29.013 7.392 31.3276 7.392C33.6423 7.392 35.369 7.952 36.5076 9.072C37.6463 10.1733 38.2156 11.8627 38.2156 14.14C38.2156 18.9 35.845 21.28 31.1036 21.28ZM38.9988 -1.66893e-06H45.7468V10.248C46.0454 9.38933 46.5028 8.69867 47.1188 8.176C47.7348 7.65333 48.6681 7.392 49.9188 7.392C52.8121 7.392 54.2588 8.95067 54.2588 12.068V20.496H55.8268V21H47.9028V20.496H49.0508V11.396C49.0508 10.276 48.9761 9.55733 48.8268 9.24C48.6774 8.904 48.4068 8.736 48.0148 8.736C47.4174 8.736 46.8854 9.128 46.4188 9.912C45.9708 10.696 45.7468 11.648 45.7468 12.768V20.496H46.9507V21H38.9988V20.496H40.5388V0.503999H38.9988V-1.66893e-06ZM62.9727 14.42H63.7847V12.264C63.7847 10.4907 63.682 9.30533 63.4767 8.708C63.29 8.092 62.9167 7.784 62.3567 7.784C62.0207 7.784 61.7127 7.87733 61.4327 8.064C61.1713 8.232 61.0407 8.47467 61.0407 8.792C61.0407 9.09067 61.0967 9.39867 61.2087 9.716H61.9087C62.058 10.108 62.1327 10.584 62.1327 11.144C62.1327 11.6853 61.8993 12.1613 61.4327 12.572C60.966 12.964 60.378 13.16 59.6687 13.16C58.0633 13.16 57.2607 12.3853 57.2607 10.836C57.2607 8.54 59.2113 7.392 63.1127 7.392C65.334 7.392 66.8647 7.77467 67.7047 8.54C68.5633 9.28667 68.9927 10.668 68.9927 12.684V18.368C68.9927 19.3387 69.2633 19.824 69.8047 19.824C70.4393 19.824 70.8127 18.8627 70.9247 16.94L71.3447 16.968C71.27 18.6107 70.962 19.74 70.4207 20.356C69.8793 20.972 68.9927 21.28 67.7607 21.28C65.5207 21.28 64.2327 20.5893 63.8967 19.208C63.654 19.9173 63.29 20.44 62.8047 20.776C62.3193 21.112 61.61 21.28 60.6767 21.28C57.914 21.28 56.5327 20.1507 56.5327 17.892C56.5327 16.5667 57.0553 15.6613 58.1007 15.176C59.1647 14.672 60.7887 14.42 62.9727 14.42ZM61.8527 17.864C61.8527 18.8347 61.8993 19.46 61.9927 19.74C62.1047 20.02 62.3007 20.16 62.5807 20.16C62.8793 20.16 63.15 19.9267 63.3927 19.46C63.654 18.9747 63.7847 18.312 63.7847 17.472V14.868H63.5887C62.4313 14.868 61.8527 15.7173 61.8527 17.416V17.864ZM71.6198 7.672H78.3678V10.248C78.9838 8.344 80.3372 7.392 82.4278 7.392C84.5372 7.392 85.8158 8.4 86.2638 10.416C86.9172 8.4 88.2892 7.392 90.3798 7.392C93.1238 7.392 94.4958 8.95067 94.4958 12.068V20.496H96.0638V21H88.3078V20.496H89.2878V11.396C89.2878 9.97733 89.1665 9.14667 88.9238 8.904C88.8118 8.792 88.6625 8.736 88.4758 8.736C87.9345 8.736 87.4585 9.1 87.0478 9.828C86.6372 10.556 86.4318 11.48 86.4318 12.6V20.496H87.4398V21H80.2438V20.496H81.2238V11.396C81.2238 9.97733 81.1025 9.14667 80.8598 8.904C80.7478 8.792 80.5985 8.736 80.4118 8.736C79.8892 8.736 79.4132 9.13733 78.9838 9.94C78.5732 10.724 78.3678 11.6667 78.3678 12.768V20.496H79.3758V21H71.6198V20.496H73.1598V8.176H71.6198V7.672ZM96.4753 7.672H103.223V10.248C103.839 8.344 105.193 7.392 107.283 7.392C109.393 7.392 110.671 8.4 111.119 10.416C111.773 8.4 113.145 7.392 115.235 7.392C117.979 7.392 119.351 8.95067 119.351 12.068V20.496H120.919V21H113.163V20.496H114.143V11.396C114.143 9.97733 114.022 9.14667 113.779 8.904C113.667 8.792 113.518 8.736 113.331 8.736C112.79 8.736 112.314 9.1 111.903 9.828C111.493 10.556 111.287 11.48 111.287 12.6V20.496H112.295V21H105.099V20.496H106.079V11.396C106.079 9.97733 105.958 9.14667 105.715 8.904C105.603 8.792 105.454 8.736 105.267 8.736C104.745 8.736 104.269 9.13733 103.839 9.94C103.429 10.724 103.223 11.6667 103.223 12.768V20.496H104.231V21H96.4753V20.496H98.0153V8.176H96.4753V7.672ZM128.695 21.28C126.287 21.28 124.476 20.664 123.263 19.432C122.068 18.1813 121.471 16.4547 121.471 14.252C121.471 12.0307 122.143 10.332 123.487 9.156C124.849 7.98 126.576 7.392 128.667 7.392C132.904 7.392 134.939 9.52 134.771 13.776H126.875V14.868C126.875 16.6973 127.108 18.0787 127.575 19.012C128.041 19.9453 128.853 20.412 130.011 20.412C132.176 20.412 133.595 19.2547 134.267 16.94L134.771 17.024C134.416 18.368 133.772 19.4133 132.839 20.16C131.924 20.9067 130.543 21.28 128.695 21.28ZM126.903 13.216H129.787V11.844C129.787 10.332 129.693 9.30533 129.507 8.764C129.339 8.204 128.984 7.924 128.443 7.924C127.92 7.924 127.528 8.22267 127.267 8.82C127.024 9.39867 126.903 10.4067 126.903 11.844V13.216ZM141.452 15.204C141.452 17.164 141.555 18.4707 141.76 19.124C141.966 19.7587 142.339 20.076 142.88 20.076C143.44 20.076 143.916 19.8333 144.308 19.348C144.719 18.8627 144.924 18.144 144.924 17.192V11.088C144.924 10.2853 144.766 9.604 144.448 9.044C144.131 8.484 143.664 8.204 143.048 8.204C142.432 8.204 142.012 8.61467 141.788 9.436C141.564 10.2573 141.452 11.6947 141.452 13.748V15.204ZM145.288 21L144.98 19.04C144.346 20.5333 143.058 21.28 141.116 21.28C139.511 21.28 138.26 20.7013 137.364 19.544C136.487 18.3867 136.048 16.66 136.048 14.364C136.048 9.716 137.896 7.392 141.592 7.392C143.235 7.392 144.318 7.84933 144.84 8.764V0.503999H143.132V-1.66893e-06H150.132V20.496H151.504V21H145.288ZM157.68 1.4H166.22V1.932H164.68V20.468H166.22V21H157.68V20.468H159.22V1.932H157.68V1.4ZM167.214 7.672H173.962V10.248C174.578 8.344 175.931 7.392 178.022 7.392C180.131 7.392 181.41 8.4 181.858 10.416C182.511 8.4 183.883 7.392 185.974 7.392C188.718 7.392 190.09 8.95067 190.09 12.068V20.496H191.658V21H183.902V20.496H184.882V11.396C184.882 9.97733 184.76 9.14667 184.518 8.904C184.406 8.792 184.256 8.736 184.07 8.736C183.528 8.736 183.052 9.1 182.642 9.828C182.231 10.556 182.026 11.48 182.026 12.6V20.496H183.034V21H175.838V20.496H176.818V11.396C176.818 9.97733 176.696 9.14667 176.454 8.904C176.342 8.792 176.192 8.736 176.006 8.736C175.483 8.736 175.007 9.13733 174.578 9.94C174.167 10.724 173.962 11.6667 173.962 12.768V20.496H174.97V21H167.214V20.496H168.754V8.176H167.214V7.672ZM201.421 8.456C200.73 8.456 200.124 8.904 199.601 9.8C199.078 10.696 198.817 11.76 198.817 12.992V20.496H200.805V21H192.069V20.496H193.609V8.176H192.069V7.672H198.817V10.36C199.06 9.408 199.526 8.68 200.217 8.176C200.908 7.65333 201.692 7.392 202.569 7.392C203.446 7.392 204.156 7.644 204.697 8.148C205.257 8.63333 205.537 9.33333 205.537 10.248C205.537 11.144 205.332 11.8347 204.921 12.32C204.51 12.8053 203.876 13.048 203.017 13.048C202.177 13.048 201.552 12.768 201.141 12.208C200.749 11.648 200.702 10.8733 201.001 9.884H202.009C202.476 8.932 202.28 8.456 201.421 8.456ZM212.242 14.42H213.054V12.264C213.054 10.4907 212.952 9.30533 212.746 8.708C212.56 8.092 212.186 7.784 211.626 7.784C211.29 7.784 210.982 7.87733 210.702 8.064C210.441 8.232 210.31 8.47467 210.31 8.792C210.31 9.09067 210.366 9.39867 210.478 9.716H211.178C211.328 10.108 211.402 10.584 211.402 11.144C211.402 11.6853 211.169 12.1613 210.702 12.572C210.236 12.964 209.648 13.16 208.938 13.16C207.333 13.16 206.53 12.3853 206.53 10.836C206.53 8.54 208.481 7.392 212.382 7.392C214.604 7.392 216.134 7.77467 216.974 8.54C217.833 9.28667 218.262 10.668 218.262 12.684V18.368C218.262 19.3387 218.533 19.824 219.074 19.824C219.709 19.824 220.082 18.8627 220.194 16.94L220.614 16.968C220.54 18.6107 220.232 19.74 219.69 20.356C219.149 20.972 218.262 21.28 217.03 21.28C214.79 21.28 213.502 20.5893 213.166 19.208C212.924 19.9173 212.56 20.44 212.074 20.776C211.589 21.112 210.88 21.28 209.946 21.28C207.184 21.28 205.802 20.1507 205.802 17.892C205.802 16.5667 206.325 15.6613 207.37 15.176C208.434 14.672 210.058 14.42 212.242 14.42ZM211.122 17.864C211.122 18.8347 211.169 19.46 211.262 19.74C211.374 20.02 211.57 20.16 211.85 20.16C212.149 20.16 212.42 19.9267 212.662 19.46C212.924 18.9747 213.054 18.312 213.054 17.472V14.868H212.858C211.701 14.868 211.122 15.7173 211.122 17.416V17.864ZM220.945 7.672H227.693V10.248C227.992 9.38933 228.449 8.69867 229.065 8.176C229.681 7.65333 230.615 7.392 231.865 7.392C234.759 7.392 236.205 8.95067 236.205 12.068V20.496H237.773V21H229.849V20.496H230.997V11.396C230.997 10.276 230.923 9.55733 230.773 9.24C230.624 8.904 230.353 8.736 229.961 8.736C229.364 8.736 228.832 9.128 228.365 9.912C227.917 10.696 227.693 11.648 227.693 12.768V20.496H228.897V21H220.945V20.496H222.485V8.176H220.945V7.672Z" fill="#F3FFF1"/>
</svg>
