<svg width="224" height="21" viewBox="0 0 224 21" fill="none" xmlns="http://www.w3.org/2000/svg">

<path d="M5.06023 2.0625C5.4157 2.0625 5.93068 2.03971 6.60516 1.99414C7.27964 1.93945 7.72169 1.90755 7.93133 1.89844C9.27117 4.86068 10.9938 8.72526 13.0993 13.4922C13.154 13.5286 13.1904 13.5469 13.2087 13.5469C13.2178 13.5469 13.236 13.5241 13.2634 13.4785C13.2998 13.4329 13.318 13.401 13.318 13.3828C14.6852 10.0286 15.7608 7.25781 16.5446 5.07031C16.6722 4.72396 16.8089 4.29557 16.9548 3.78516C17.1006 3.27474 17.2191 2.85091 17.3102 2.51367L17.447 2.00781C17.9391 2.0625 18.9235 2.08984 20.4001 2.08984C20.7555 2.08984 21.3207 2.0625 22.0954 2.00781C22.8792 1.94401 23.3805 1.90755 23.5993 1.89844C23.6631 1.96224 23.7132 2.12174 23.7497 2.37695C23.7861 2.63216 23.7725 2.81901 23.7087 2.9375C23.5446 2.9375 23.294 2.9694 22.9567 3.0332C22.6286 3.08789 22.4053 3.15625 22.2868 3.23828C22.1318 3.34766 22.027 3.47526 21.9723 3.62109C21.9177 3.76693 21.8949 4.01302 21.904 4.35938C21.9222 4.7513 21.9769 6.42839 22.068 9.39062C22.1683 12.3529 22.2503 14.5039 22.3141 15.8438C22.3141 15.8802 22.3187 15.9941 22.3278 16.1855C22.3369 16.377 22.3415 16.5 22.3415 16.5547C22.3506 16.6003 22.3597 16.7051 22.3688 16.8691C22.3779 17.0332 22.3871 17.1471 22.3962 17.2109C22.4053 17.2656 22.4144 17.3613 22.4235 17.498C22.4417 17.6348 22.4554 17.7396 22.4645 17.8125C22.4828 17.8854 22.501 17.9766 22.5192 18.0859C22.5374 18.1953 22.5602 18.291 22.5876 18.373C22.6149 18.4551 22.6423 18.5326 22.6696 18.6055C22.7425 18.7695 22.9886 18.8926 23.4079 18.9746C23.8272 19.0566 24.1553 19.0977 24.3923 19.0977C24.447 19.2253 24.4789 19.3939 24.488 19.6035C24.4971 19.804 24.4834 19.9727 24.447 20.1094C24.292 20.1003 23.7497 20.0638 22.82 20C21.8994 19.9271 21.2022 19.8906 20.7282 19.8906C20.236 19.8906 19.443 19.9271 18.3493 20C17.2555 20.0638 16.6175 20.1003 16.4352 20.1094C16.3805 20.0547 16.3441 19.8997 16.3259 19.6445C16.3167 19.3893 16.335 19.207 16.3805 19.0977C16.654 19.0977 17.014 19.0521 17.4606 18.9609C17.9072 18.8698 18.1852 18.7422 18.2946 18.5781C18.4404 18.3411 18.5134 18.0221 18.5134 17.6211C18.5134 16.8372 18.5042 16.2812 18.486 15.9531L18.2126 6.41016C18.2126 5.9362 18.1488 5.69922 18.0212 5.69922C17.9847 5.69922 17.9391 5.76302 17.8845 5.89062L13.072 18.9062C13.0082 19.0885 12.8486 19.3255 12.5934 19.6172C12.3473 19.9089 12.1149 20.0547 11.8962 20.0547C11.8415 20.0547 11.7595 20.0365 11.6501 20L5.55242 5.69922C5.50685 7.14844 5.46128 8.5293 5.4157 9.8418C5.37924 11.1543 5.34279 12.248 5.30633 13.123C5.27898 13.998 5.24253 15.069 5.19695 16.3359C5.18784 16.6185 5.19695 16.9785 5.2243 17.416C5.25164 17.8535 5.27898 18.1224 5.30633 18.2227C5.37924 18.4688 5.73016 18.6784 6.35906 18.8516C6.98797 19.0156 7.43003 19.0977 7.68523 19.0977C7.73081 19.1979 7.75815 19.3574 7.76727 19.5762C7.78549 19.7858 7.77638 19.9635 7.73992 20.1094C7.53029 20.1003 7.02898 20.0638 6.23602 20C5.44305 19.9271 4.81414 19.8906 4.3493 19.8906C3.87534 19.8906 3.26466 19.9225 2.51727 19.9863C1.77898 20.0501 1.25034 20.0911 0.931328 20.1094C0.87664 20.0182 0.844739 19.8678 0.835625 19.6582C0.835625 19.4395 0.858411 19.2617 0.903984 19.125C1.20477 19.125 1.63315 19.0384 2.18914 18.8652C2.75424 18.6921 3.1006 18.4505 3.2282 18.1406C3.27378 18.0221 3.33302 17.6621 3.40594 17.0605C3.48797 16.459 3.5381 16.0169 3.55633 15.7344C3.6019 14.7956 3.65659 13.4694 3.72039 11.7559C3.79331 10.0423 3.85711 8.39714 3.9118 6.82031C3.9756 5.24349 4.01206 4.34115 4.02117 4.11328C4.02117 3.83984 3.9756 3.63932 3.88445 3.51172C3.78419 3.375 3.52443 3.24284 3.10516 3.11523C2.695 2.97852 2.36232 2.91016 2.10711 2.91016C2.03419 2.79167 2.00685 2.60482 2.02508 2.34961C2.04331 2.08529 2.07065 1.9349 2.10711 1.89844C2.40789 1.90755 2.8545 1.93945 3.44695 1.99414C4.04852 2.03971 4.58628 2.0625 5.06023 2.0625ZM31.331 8.89844C30.8571 8.89844 30.4651 9.03971 30.1552 9.32227C29.8453 9.5957 29.622 9.98763 29.4853 10.498C29.3486 10.9993 29.2574 11.4779 29.2119 11.9336C29.1663 12.3893 29.1435 12.918 29.1435 13.5195C29.1435 14.3854 29.2347 15.224 29.417 16.0352C29.5992 16.8372 29.9091 17.5391 30.3466 18.1406C30.7933 18.7422 31.331 19.043 31.9599 19.043C32.3427 19.043 32.6754 18.9473 32.958 18.7559C33.2405 18.5553 33.4547 18.3092 33.6005 18.0176C33.7555 17.7259 33.8785 17.3613 33.9697 16.9238C34.0608 16.4863 34.1155 16.0853 34.1337 15.7207C34.1611 15.3561 34.1748 14.9414 34.1748 14.4766C34.1748 13.6016 34.0791 12.7585 33.8877 11.9473C33.7054 11.127 33.3909 10.416 32.9443 9.81445C32.4977 9.20378 31.9599 8.89844 31.331 8.89844ZM31.6318 7.77734C33.5094 7.77734 35.0498 8.35156 36.2529 9.5C37.456 10.6484 38.0576 12.0977 38.0576 13.8477C38.0576 14.987 37.7796 16.0443 37.2236 17.0195C36.6676 17.9857 35.8974 18.7559 34.913 19.3301C33.9378 19.9043 32.8623 20.1914 31.6865 20.1914C29.8089 20.1914 28.2685 19.6081 27.0654 18.4414C25.8623 17.2656 25.2607 15.8073 25.2607 14.0664C25.2607 12.3346 25.8759 10.8535 27.1064 9.62305C28.346 8.39258 29.8545 7.77734 31.6318 7.77734ZM48.5373 7.80469C49.1571 7.80469 49.6858 7.89583 50.1233 8.07812C50.5608 8.2513 50.9162 8.50195 51.1897 8.83008C51.4722 9.14909 51.691 9.58203 51.8459 10.1289C52.0009 10.6758 52.1057 11.2728 52.1604 11.9199C52.2242 12.5579 52.2561 13.3372 52.2561 14.2578V16.0352C52.2561 17.3841 52.329 18.2409 52.4748 18.6055C52.566 18.8516 53.1493 19.0156 54.2248 19.0977C54.2886 19.1979 54.316 19.3711 54.3069 19.6172C54.3069 19.8633 54.2795 20.0273 54.2248 20.1094C52.9761 19.9818 51.7274 19.918 50.4787 19.918C49.4488 19.918 48.3095 19.9818 47.0608 20.1094C47.0061 20.0273 46.9742 19.8633 46.9651 19.6172C46.9651 19.3711 46.997 19.1979 47.0608 19.0977C47.9084 19.0339 48.3824 18.8698 48.4827 18.6055C48.6285 18.2409 48.7014 17.3841 48.7014 16.0352V13.875C48.7014 11.3047 48.0907 10.0195 46.8694 10.0195C46.3498 10.0195 45.8166 10.2018 45.2698 10.5664C44.732 10.931 44.4631 11.2591 44.4631 11.5508V16.0352C44.4631 17.3841 44.536 18.2409 44.6819 18.6055C44.7821 18.8607 45.3017 19.0247 46.2405 19.0977C46.3043 19.1979 46.3316 19.3711 46.3225 19.6172C46.3225 19.8633 46.2952 20.0273 46.2405 20.1094C44.9918 19.9818 43.8069 19.918 42.6858 19.918C41.4371 19.918 40.1884 19.9818 38.9397 20.1094C38.885 20.0273 38.8531 19.8633 38.844 19.6172C38.844 19.3711 38.8759 19.1979 38.9397 19.0977C40.0152 19.0156 40.5985 18.8516 40.6897 18.6055C40.8355 18.2409 40.9084 17.3841 40.9084 16.0352V4.74219C40.9084 4.17708 40.8446 3.73958 40.717 3.42969C40.6532 3.28385 40.4254 3.16536 40.0334 3.07422C39.6415 2.98307 39.3225 2.9375 39.0764 2.9375C39.0399 2.9375 39.0126 2.8737 38.9944 2.74609C38.9761 2.60938 38.9716 2.47266 38.9807 2.33594C38.9989 2.1901 39.0308 2.09896 39.0764 2.0625C39.6506 2.00781 40.2203 1.9349 40.7854 1.84375C41.3505 1.7526 41.8336 1.66146 42.2346 1.57031C42.6448 1.47005 43.0093 1.37891 43.3284 1.29688C43.6474 1.20573 43.8935 1.13281 44.0666 1.07812C44.2489 1.02344 44.3446 0.996094 44.3537 0.996094C44.4267 1.00521 44.5087 1.06901 44.5998 1.1875C44.691 1.29688 44.7457 1.38802 44.7639 1.46094C44.5634 2.59115 44.4631 3.52083 44.4631 4.25V9.82812C44.4631 9.91927 44.4722 9.97396 44.4905 9.99219C44.5269 9.99219 44.5907 9.94661 44.6819 9.85547C45.1011 9.3724 45.6981 8.91211 46.4729 8.47461C47.2567 8.02799 47.9449 7.80469 48.5373 7.80469ZM60.357 18.3047C60.6668 18.3047 60.9312 18.2363 61.1499 18.0996C61.3687 17.9538 61.478 17.8307 61.478 17.7305V13.9023C61.4234 13.9297 61.1636 14.0482 60.6987 14.2578C60.2339 14.4674 59.8921 14.6406 59.6734 14.7773C58.9807 15.224 58.6525 15.8346 58.689 16.6094C58.6981 17.1471 58.8758 17.5664 59.2222 17.8672C59.5685 18.1589 59.9468 18.3047 60.357 18.3047ZM60.9312 7.72266C62.0796 7.72266 63.0503 8.11914 63.8433 8.91211C64.6362 9.69596 65.0327 10.694 65.0327 11.9062V17.0195C65.0327 17.375 65.092 17.653 65.2105 17.8535C65.3381 18.0449 65.4976 18.1406 65.689 18.1406C65.7801 18.1406 65.8713 18.127 65.9624 18.0996C66.0536 18.0723 66.1265 18.0495 66.1812 18.0312C66.2359 17.9948 66.2997 17.9583 66.3726 17.9219L66.482 17.8672C66.6096 17.931 66.6734 18.0859 66.6734 18.332C66.6734 18.487 66.6369 18.6237 66.564 18.7422C66.3726 18.9154 66.1538 19.0977 65.9077 19.2891C65.6708 19.4714 65.3381 19.6628 64.9097 19.8633C64.4813 20.0638 64.0939 20.1641 63.7476 20.1641C63.3101 20.1641 62.8862 20.0228 62.4761 19.7402C62.0659 19.4577 61.7971 19.1432 61.6695 18.7969C61.4416 18.9974 60.9767 19.2845 60.2749 19.6582C59.5731 20.0319 59.008 20.2188 58.5796 20.2188C57.577 20.2188 56.7293 19.877 56.0366 19.1934C55.3439 18.5007 54.9976 17.7305 54.9976 16.8828C54.9976 16.3724 55.1389 15.9121 55.4214 15.502C55.7131 15.0827 56.0458 14.8138 56.4195 14.6953C56.7202 14.5951 57.1805 14.431 57.8003 14.2031C58.4201 13.9661 59.1037 13.7018 59.8511 13.4102C60.6076 13.1185 61.1499 12.9089 61.478 12.7812V12.207V11.4961C61.478 10.7852 61.3231 10.1517 61.0132 9.5957C60.7124 9.03971 60.3296 8.76172 59.8648 8.76172C59.6642 8.76172 59.482 8.80729 59.3179 8.89844C59.1629 8.98047 59.0353 9.08529 58.9351 9.21289C58.8348 9.33138 58.7391 9.50456 58.648 9.73242C58.5659 9.96029 58.4976 10.1654 58.4429 10.3477C58.3973 10.5208 58.3426 10.7578 58.2788 11.0586C58.1057 11.8607 57.5952 12.2617 56.7476 12.2617C56.3648 12.2617 56.0321 12.1387 55.7495 11.8926C55.467 11.6374 55.3257 11.3229 55.3257 10.9492C55.3257 10.6484 55.4533 10.2747 55.7085 9.82812C56.0549 9.48177 56.7521 9.04427 57.8003 8.51562C58.8576 7.98698 59.9012 7.72266 60.9312 7.72266ZM77.1805 7.80469C78.0646 7.80469 78.7618 7.98242 79.2723 8.33789C79.7918 8.68424 80.2156 9.29036 80.5437 10.1562C81.1635 9.54557 81.9109 9.00326 82.7859 8.5293C83.67 8.04622 84.4174 7.80469 85.0281 7.80469C85.6479 7.80469 86.1766 7.89583 86.6141 8.07812C87.0516 8.2513 87.407 8.50195 87.6805 8.83008C87.963 9.14909 88.1818 9.58203 88.3367 10.1289C88.4917 10.6758 88.5965 11.2728 88.6512 11.9199C88.715 12.5579 88.7469 13.3372 88.7469 14.2578V16.0352C88.7469 17.3841 88.8198 18.2409 88.9656 18.6055C89.0568 18.8516 89.6401 19.0156 90.7156 19.0977C90.7794 19.1979 90.8068 19.3711 90.7977 19.6172C90.7977 19.8633 90.7703 20.0273 90.7156 20.1094C89.4669 19.9818 88.2182 19.918 86.9695 19.918C85.9396 19.918 84.8003 19.9818 83.5516 20.1094C83.4969 20.0273 83.465 19.8633 83.4559 19.6172C83.4559 19.3711 83.4878 19.1979 83.5516 19.0977C84.3992 19.0339 84.8732 18.8698 84.9734 18.6055C85.1193 18.2409 85.1922 17.3841 85.1922 16.0352V13.875C85.1922 11.3047 84.5815 10.0195 83.3602 10.0195C82.8315 10.0195 82.271 10.2018 81.6785 10.5664C81.0861 10.9219 80.7898 11.2409 80.7898 11.5234V11.6875C80.8628 12.7083 80.8992 13.5651 80.8992 14.2578V16.0352C80.8992 17.3841 80.9721 18.2409 81.118 18.6055C81.2091 18.8516 81.7742 19.0156 82.8133 19.0977C82.8771 19.1979 82.9044 19.3711 82.8953 19.6172C82.8953 19.8633 82.868 20.0273 82.8133 20.1094C81.5646 19.9818 80.3341 19.918 79.1219 19.918C78.0555 19.918 76.8979 19.9818 75.6492 20.1094C75.5945 20.0273 75.5626 19.8633 75.5535 19.6172C75.5535 19.3711 75.5854 19.1979 75.6492 19.0977C76.5333 19.0339 77.0255 18.8698 77.1258 18.6055C77.2716 18.2409 77.3445 17.3841 77.3445 16.0352V13.875C77.3445 11.3047 76.7339 10.0195 75.5125 10.0195C74.993 10.0195 74.4598 10.2018 73.9129 10.5664C73.3751 10.931 73.1062 11.2591 73.1062 11.5508V16.0352C73.1062 17.3841 73.1792 18.2409 73.325 18.6055C73.4253 18.8607 73.9448 19.0247 74.8836 19.0977C74.9474 19.1979 74.9747 19.3711 74.9656 19.6172C74.9656 19.8633 74.9383 20.0273 74.8836 20.1094C73.6349 19.9818 72.45 19.918 71.3289 19.918C70.0802 19.918 68.8315 19.9818 67.5828 20.1094C67.5281 20.0273 67.4962 19.8633 67.4871 19.6172C67.4871 19.3711 67.519 19.1979 67.5828 19.0977C68.6583 19.0156 69.2417 18.8516 69.3328 18.6055C69.4786 18.2409 69.5516 17.3841 69.5516 16.0352V12.8906C69.5516 11.7057 69.4695 10.9583 69.3055 10.6484C69.2143 10.4753 68.9546 10.3431 68.5262 10.252C68.1069 10.1517 67.7924 10.1016 67.5828 10.1016C67.5372 10.0742 67.5145 9.92839 67.5145 9.66406C67.5145 9.39062 67.5464 9.25391 67.6102 9.25391C68.5581 9.18099 69.5288 8.9987 70.5223 8.70703C71.5249 8.41536 72.3315 8.11458 72.9422 7.80469C73.0333 7.83203 73.1336 7.90495 73.243 8.02344C73.3523 8.14193 73.407 8.22396 73.407 8.26953C73.3706 8.36979 73.3113 8.65234 73.2293 9.11719C73.1473 9.57292 73.1154 9.8099 73.1336 9.82812C73.1336 9.91927 73.1427 9.97396 73.1609 9.99219C73.1974 9.99219 73.2612 9.94661 73.3523 9.85547C73.7807 9.3724 74.3777 8.91211 75.1434 8.47461C75.9181 8.02799 76.5971 7.80469 77.1805 7.80469ZM101.045 7.80469C101.929 7.80469 102.626 7.98242 103.137 8.33789C103.656 8.68424 104.08 9.29036 104.408 10.1562C105.028 9.54557 105.775 9.00326 106.65 8.5293C107.535 8.04622 108.282 7.80469 108.893 7.80469C109.512 7.80469 110.041 7.89583 110.479 8.07812C110.916 8.2513 111.272 8.50195 111.545 8.83008C111.828 9.14909 112.046 9.58203 112.201 10.1289C112.356 10.6758 112.461 11.2728 112.516 11.9199C112.58 12.5579 112.611 13.3372 112.611 14.2578V16.0352C112.611 17.3841 112.684 18.2409 112.83 18.6055C112.921 18.8516 113.505 19.0156 114.58 19.0977C114.644 19.1979 114.671 19.3711 114.662 19.6172C114.662 19.8633 114.635 20.0273 114.58 20.1094C113.331 19.9818 112.083 19.918 110.834 19.918C109.804 19.918 108.665 19.9818 107.416 20.1094C107.361 20.0273 107.33 19.8633 107.32 19.6172C107.32 19.3711 107.352 19.1979 107.416 19.0977C108.264 19.0339 108.738 18.8698 108.838 18.6055C108.984 18.2409 109.057 17.3841 109.057 16.0352V13.875C109.057 11.3047 108.446 10.0195 107.225 10.0195C106.696 10.0195 106.135 10.2018 105.543 10.5664C104.951 10.9219 104.654 11.2409 104.654 11.5234V11.6875C104.727 12.7083 104.764 13.5651 104.764 14.2578V16.0352C104.764 17.3841 104.837 18.2409 104.982 18.6055C105.074 18.8516 105.639 19.0156 106.678 19.0977C106.742 19.1979 106.769 19.3711 106.76 19.6172C106.76 19.8633 106.732 20.0273 106.678 20.1094C105.429 19.9818 104.199 19.918 102.986 19.918C101.92 19.918 100.762 19.9818 99.5137 20.1094C99.4591 20.0273 99.4272 19.8633 99.418 19.6172C99.418 19.3711 99.4499 19.1979 99.5137 19.0977C100.398 19.0339 100.89 18.8698 100.99 18.6055C101.136 18.2409 101.209 17.3841 101.209 16.0352V13.875C101.209 11.3047 100.598 10.0195 99.377 10.0195C98.8575 10.0195 98.3243 10.2018 97.7774 10.5664C97.2397 10.931 96.9708 11.2591 96.9708 11.5508V16.0352C96.9708 17.3841 97.0437 18.2409 97.1895 18.6055C97.2898 18.8607 97.8093 19.0247 98.7481 19.0977C98.8119 19.1979 98.8393 19.3711 98.8302 19.6172C98.8302 19.8633 98.8028 20.0273 98.7481 20.1094C97.4994 19.9818 96.3145 19.918 95.1934 19.918C93.9447 19.918 92.696 19.9818 91.4473 20.1094C91.3927 20.0273 91.3608 19.8633 91.3516 19.6172C91.3516 19.3711 91.3835 19.1979 91.4473 19.0977C92.5229 19.0156 93.1062 18.8516 93.1973 18.6055C93.3432 18.2409 93.4161 17.3841 93.4161 16.0352V12.8906C93.4161 11.7057 93.3341 10.9583 93.17 10.6484C93.0789 10.4753 92.8191 10.3431 92.3907 10.252C91.9714 10.1517 91.657 10.1016 91.4473 10.1016C91.4018 10.0742 91.379 9.92839 91.379 9.66406C91.379 9.39062 91.4109 9.25391 91.4747 9.25391C92.4226 9.18099 93.3933 8.9987 94.3868 8.70703C95.3894 8.41536 96.196 8.11458 96.8067 7.80469C96.8979 7.83203 96.9981 7.90495 97.1075 8.02344C97.2169 8.14193 97.2716 8.22396 97.2716 8.26953C97.2351 8.36979 97.1759 8.65234 97.0938 9.11719C97.0118 9.57292 96.9799 9.8099 96.9981 9.82812C96.9981 9.91927 97.0072 9.97396 97.0255 9.99219C97.0619 9.99219 97.1257 9.94661 97.2169 9.85547C97.6453 9.3724 98.2423 8.91211 99.0079 8.47461C99.7826 8.02799 100.462 7.80469 101.045 7.80469ZM118.962 12.2891C119.081 12.2982 119.614 12.2754 120.562 12.2207C121.519 12.166 122.161 12.1159 122.49 12.0703C122.727 12.0521 122.845 11.9062 122.845 11.6328C122.845 10.9036 122.708 10.2656 122.435 9.71875C122.161 9.17188 121.742 8.89844 121.177 8.89844C120.803 8.89844 120.462 9.0306 120.152 9.29492C119.851 9.55013 119.619 9.86914 119.454 10.252C119.29 10.6348 119.167 11.0039 119.085 11.3594C119.003 11.7148 118.962 12.0247 118.962 12.2891ZM118.935 13.3828C118.935 14.112 119.031 14.7591 119.222 15.3242C119.413 15.8893 119.646 16.3314 119.919 16.6504C120.202 16.9694 120.525 17.2337 120.89 17.4434C121.255 17.6439 121.587 17.7806 121.888 17.8535C122.189 17.9173 122.48 17.9492 122.763 17.9492C123.975 17.9492 124.996 17.4935 125.826 16.582C125.917 16.6094 125.994 16.6777 126.058 16.7871C126.122 16.8874 126.154 16.9831 126.154 17.0742C126.154 17.3385 126.126 17.5117 126.072 17.5938C125.926 17.8216 125.716 18.0723 125.443 18.3457C125.169 18.61 124.823 18.8926 124.404 19.1934C123.984 19.4941 123.483 19.7448 122.9 19.9453C122.326 20.1458 121.733 20.2461 121.122 20.2461C120.092 20.2461 119.145 20.0228 118.279 19.5762C117.413 19.1296 116.711 18.4688 116.173 17.5938C115.645 16.7096 115.38 15.6888 115.38 14.5312C115.38 13.401 115.663 12.3164 116.228 11.2773C116.802 10.2292 117.559 9.38607 118.497 8.74805C119.445 8.10091 120.43 7.77734 121.451 7.77734C122.134 7.77734 122.754 7.87305 123.31 8.06445C123.875 8.24674 124.331 8.48372 124.677 8.77539C125.033 9.06706 125.329 9.39974 125.566 9.77344C125.812 10.1471 125.985 10.5117 126.085 10.8672C126.186 11.2227 126.236 11.569 126.236 11.9062C126.236 12.207 126.163 12.4714 126.017 12.6992C125.871 12.9271 125.698 13.0456 125.497 13.0547C123.857 13.2005 121.669 13.3099 118.935 13.3828ZM134.842 7.80469C135.28 7.80469 135.645 7.82292 135.936 7.85938C136.027 7.85938 136.073 7.64974 136.073 7.23047C136.073 7.23047 136.073 6.40104 136.073 4.74219C136.073 4.17708 136.009 3.73958 135.881 3.42969C135.818 3.28385 135.59 3.16536 135.198 3.07422C134.806 2.98307 134.487 2.9375 134.241 2.9375C134.204 2.9375 134.177 2.8737 134.159 2.74609C134.141 2.60938 134.136 2.47266 134.145 2.33594C134.163 2.1901 134.195 2.09896 134.241 2.0625C134.815 2.00781 135.385 1.9349 135.95 1.84375C136.515 1.7526 136.998 1.66146 137.399 1.57031C137.809 1.47005 138.174 1.37891 138.493 1.29688C138.812 1.20573 139.058 1.13281 139.231 1.07812C139.413 1.02344 139.509 0.996094 139.518 0.996094C139.591 1.00521 139.673 1.06901 139.764 1.1875C139.855 1.29688 139.91 1.38802 139.928 1.46094C139.728 2.28125 139.628 3.20182 139.628 4.22266V17.0469C139.628 17.5573 139.71 17.9036 139.874 18.0859C140.038 18.2682 140.448 18.3594 141.104 18.3594C141.159 18.4141 141.186 18.5326 141.186 18.7148C141.186 18.8971 141.131 19.0703 141.022 19.2344C140.557 19.2799 139.956 19.3848 139.217 19.5488C138.479 19.7038 137.832 19.8496 137.276 19.9863C136.729 20.123 136.41 20.1914 136.319 20.1914C136.255 20.1914 136.196 20.1276 136.141 20C136.096 19.8815 136.073 19.7266 136.073 19.5352V19.0977C136.073 18.9701 136.046 18.9245 135.991 18.9609C134.77 19.7995 133.648 20.2188 132.628 20.2188C131.297 20.2188 130.139 19.6673 129.155 18.5645C128.171 17.4616 127.678 16.1172 127.678 14.5312C127.678 13.6471 127.847 12.8223 128.184 12.0566C128.521 11.291 128.954 10.6576 129.483 10.1562C130.012 9.64583 130.6 9.20833 131.247 8.84375C131.894 8.47917 132.523 8.21484 133.133 8.05078C133.753 7.88672 134.323 7.80469 134.842 7.80469ZM133.94 9.19922C133.384 9.19922 132.919 9.39974 132.546 9.80078C132.181 10.2018 131.926 10.7031 131.78 11.3047C131.634 11.8971 131.561 12.5807 131.561 13.3555C131.561 14.8776 131.812 16.1126 132.313 17.0605C132.814 17.9993 133.484 18.4688 134.323 18.4688C134.687 18.4688 135.07 18.3503 135.471 18.1133C135.872 17.8672 136.073 17.6484 136.073 17.457V10.4297C136.073 10.1654 135.854 9.89648 135.417 9.62305C134.979 9.34049 134.487 9.19922 133.94 9.19922ZM154.366 2.08984C155.688 2.08984 156.973 2.02604 158.222 1.89844C158.277 1.98047 158.304 2.14453 158.304 2.39062C158.313 2.63672 158.286 2.8099 158.222 2.91016C157.146 2.99219 156.563 3.15625 156.472 3.40234C156.326 3.76693 156.253 4.6237 156.253 5.97266V16.0352C156.253 17.3841 156.326 18.2409 156.472 18.6055C156.563 18.8516 157.146 19.0156 158.222 19.0977C158.286 19.1979 158.313 19.3711 158.304 19.6172C158.304 19.8633 158.277 20.0273 158.222 20.1094C156.973 19.9818 155.67 19.918 154.312 19.918C152.99 19.918 151.705 19.9818 150.456 20.1094C150.402 20.0273 150.37 19.8633 150.361 19.6172C150.361 19.3711 150.392 19.1979 150.456 19.0977C151.532 19.0156 152.115 18.8516 152.206 18.6055C152.352 18.2409 152.425 17.3841 152.425 16.0352V5.97266C152.425 4.6237 152.352 3.76693 152.206 3.40234C152.115 3.15625 151.532 2.99219 150.456 2.91016C150.392 2.8099 150.361 2.63672 150.361 2.39062C150.37 2.14453 150.402 1.98047 150.456 1.89844C151.705 2.02604 153.008 2.08984 154.366 2.08984ZM169.372 7.80469C170.256 7.80469 170.953 7.98242 171.463 8.33789C171.983 8.68424 172.407 9.29036 172.735 10.1562C173.355 9.54557 174.102 9.00326 174.977 8.5293C175.861 8.04622 176.609 7.80469 177.219 7.80469C177.839 7.80469 178.368 7.89583 178.805 8.07812C179.243 8.2513 179.598 8.50195 179.872 8.83008C180.154 9.14909 180.373 9.58203 180.528 10.1289C180.683 10.6758 180.788 11.2728 180.842 11.9199C180.906 12.5579 180.938 13.3372 180.938 14.2578V16.0352C180.938 17.3841 181.011 18.2409 181.157 18.6055C181.248 18.8516 181.831 19.0156 182.907 19.0977C182.971 19.1979 182.998 19.3711 182.989 19.6172C182.989 19.8633 182.961 20.0273 182.907 20.1094C181.658 19.9818 180.409 19.918 179.161 19.918C178.131 19.918 176.991 19.9818 175.743 20.1094C175.688 20.0273 175.656 19.8633 175.647 19.6172C175.647 19.3711 175.679 19.1979 175.743 19.0977C176.59 19.0339 177.064 18.8698 177.165 18.6055C177.31 18.2409 177.383 17.3841 177.383 16.0352V13.875C177.383 11.3047 176.773 10.0195 175.551 10.0195C175.023 10.0195 174.462 10.2018 173.87 10.5664C173.277 10.9219 172.981 11.2409 172.981 11.5234V11.6875C173.054 12.7083 173.09 13.5651 173.09 14.2578V16.0352C173.09 17.3841 173.163 18.2409 173.309 18.6055C173.4 18.8516 173.965 19.0156 175.004 19.0977C175.068 19.1979 175.096 19.3711 175.086 19.6172C175.086 19.8633 175.059 20.0273 175.004 20.1094C173.756 19.9818 172.525 19.918 171.313 19.918C170.247 19.918 169.089 19.9818 167.84 20.1094C167.786 20.0273 167.754 19.8633 167.745 19.6172C167.745 19.3711 167.776 19.1979 167.84 19.0977C168.724 19.0339 169.217 18.8698 169.317 18.6055C169.463 18.2409 169.536 17.3841 169.536 16.0352V13.875C169.536 11.3047 168.925 10.0195 167.704 10.0195C167.184 10.0195 166.651 10.2018 166.104 10.5664C165.566 10.931 165.297 11.2591 165.297 11.5508V16.0352C165.297 17.3841 165.37 18.2409 165.516 18.6055C165.616 18.8607 166.136 19.0247 167.075 19.0977C167.138 19.1979 167.166 19.3711 167.157 19.6172C167.157 19.8633 167.129 20.0273 167.075 20.1094C165.826 19.9818 164.641 19.918 163.52 19.918C162.271 19.918 161.023 19.9818 159.774 20.1094C159.719 20.0273 159.687 19.8633 159.678 19.6172C159.678 19.3711 159.71 19.1979 159.774 19.0977C160.849 19.0156 161.433 18.8516 161.524 18.6055C161.67 18.2409 161.743 17.3841 161.743 16.0352V12.8906C161.743 11.7057 161.661 10.9583 161.497 10.6484C161.405 10.4753 161.146 10.3431 160.717 10.252C160.298 10.1517 159.984 10.1016 159.774 10.1016C159.728 10.0742 159.706 9.92839 159.706 9.66406C159.706 9.39062 159.737 9.25391 159.801 9.25391C160.749 9.18099 161.72 8.9987 162.713 8.70703C163.716 8.41536 164.523 8.11458 165.133 7.80469C165.224 7.83203 165.325 7.90495 165.434 8.02344C165.543 8.14193 165.598 8.22396 165.598 8.26953C165.562 8.36979 165.502 8.65234 165.42 9.11719C165.338 9.57292 165.306 9.8099 165.325 9.82812C165.325 9.91927 165.334 9.97396 165.352 9.99219C165.388 9.99219 165.452 9.94661 165.543 9.85547C165.972 9.3724 166.569 8.91211 167.334 8.47461C168.109 8.02799 168.788 7.80469 169.372 7.80469ZM192.771 7.77734C193.582 7.77734 194.157 7.93229 194.494 8.24219C194.558 8.34245 194.622 8.52474 194.685 8.78906C194.758 9.05339 194.795 9.31771 194.795 9.58203C194.795 10.0833 194.631 10.571 194.302 11.0449C193.974 11.5098 193.592 11.7422 193.154 11.7422C193.036 11.7422 192.913 11.7148 192.785 11.6602C192.666 11.6055 192.575 11.5599 192.511 11.5234C192.457 11.4779 192.357 11.3913 192.211 11.2637C192.065 11.1361 191.987 11.0677 191.978 11.0586C191.951 11.0312 191.896 10.9811 191.814 10.9082C191.732 10.8262 191.668 10.7715 191.623 10.7441C191.586 10.7077 191.532 10.6667 191.459 10.6211C191.386 10.5664 191.313 10.5299 191.24 10.5117C191.167 10.4935 191.085 10.4844 190.994 10.4844C190.493 10.4844 190.06 10.7578 189.695 11.3047C189.34 11.8516 189.162 12.3164 189.162 12.6992V16.0352C189.162 17.3841 189.235 18.2409 189.381 18.6055C189.472 18.8333 190.142 18.9974 191.39 19.0977C191.454 19.1979 191.482 19.3711 191.472 19.6172C191.472 19.8633 191.445 20.0273 191.39 20.1094C190.151 19.9818 188.816 19.918 187.385 19.918C186.136 19.918 184.887 19.9818 183.638 20.1094C183.584 20.0273 183.552 19.8633 183.543 19.6172C183.543 19.3711 183.575 19.1979 183.638 19.0977C184.714 19.0156 185.297 18.8516 185.388 18.6055C185.534 18.2409 185.607 17.3841 185.607 16.0352V12.8906C185.607 11.7057 185.525 10.9583 185.361 10.6484C185.27 10.4753 185.01 10.3431 184.582 10.252C184.163 10.1517 183.848 10.1016 183.638 10.1016C183.593 10.0742 183.57 9.92839 183.57 9.66406C183.57 9.39062 183.602 9.25391 183.666 9.25391C184.614 9.18099 185.584 8.9987 186.578 8.70703C187.58 8.41536 188.387 8.11458 188.998 7.80469C189.089 7.83203 189.189 7.90495 189.299 8.02344C189.408 8.14193 189.463 8.22396 189.463 8.26953C189.426 8.37891 189.372 8.71615 189.299 9.28125C189.226 9.84635 189.189 10.2292 189.189 10.4297C189.189 10.4753 189.198 10.5072 189.217 10.5254C189.244 10.5436 189.271 10.5527 189.299 10.5527C189.326 10.5436 189.344 10.5299 189.353 10.5117C189.554 10.1562 189.745 9.84635 189.927 9.58203C190.119 9.30859 190.356 9.02148 190.638 8.7207C190.93 8.41992 191.254 8.1875 191.609 8.02344C191.974 7.85938 192.361 7.77734 192.771 7.77734ZM200.899 18.3047C201.209 18.3047 201.474 18.2363 201.692 18.0996C201.911 17.9538 202.021 17.8307 202.021 17.7305V13.9023C201.966 13.9297 201.706 14.0482 201.241 14.2578C200.776 14.4674 200.435 14.6406 200.216 14.7773C199.523 15.224 199.195 15.8346 199.231 16.6094C199.241 17.1471 199.418 17.5664 199.765 17.8672C200.111 18.1589 200.489 18.3047 200.899 18.3047ZM201.474 7.72266C202.622 7.72266 203.593 8.11914 204.386 8.91211C205.179 9.69596 205.575 10.694 205.575 11.9062V17.0195C205.575 17.375 205.634 17.653 205.753 17.8535C205.881 18.0449 206.04 18.1406 206.231 18.1406C206.323 18.1406 206.414 18.127 206.505 18.0996C206.596 18.0723 206.669 18.0495 206.724 18.0312C206.778 17.9948 206.842 17.9583 206.915 17.9219L207.024 17.8672C207.152 17.931 207.216 18.0859 207.216 18.332C207.216 18.487 207.179 18.6237 207.106 18.7422C206.915 18.9154 206.696 19.0977 206.45 19.2891C206.213 19.4714 205.881 19.6628 205.452 19.8633C205.024 20.0638 204.636 20.1641 204.29 20.1641C203.853 20.1641 203.429 20.0228 203.019 19.7402C202.608 19.4577 202.34 19.1432 202.212 18.7969C201.984 18.9974 201.519 19.2845 200.817 19.6582C200.116 20.0319 199.55 20.2188 199.122 20.2188C198.119 20.2188 197.272 19.877 196.579 19.1934C195.886 18.5007 195.54 17.7305 195.54 16.8828C195.54 16.3724 195.681 15.9121 195.964 15.502C196.256 15.0827 196.588 14.8138 196.962 14.6953C197.263 14.5951 197.723 14.431 198.343 14.2031C198.963 13.9661 199.646 13.7018 200.394 13.4102C201.15 13.1185 201.692 12.9089 202.021 12.7812V12.207V11.4961C202.021 10.7852 201.866 10.1517 201.556 9.5957C201.255 9.03971 200.872 8.76172 200.407 8.76172C200.207 8.76172 200.024 8.80729 199.86 8.89844C199.705 8.98047 199.578 9.08529 199.478 9.21289C199.377 9.33138 199.282 9.50456 199.19 9.73242C199.108 9.96029 199.04 10.1654 198.985 10.3477C198.94 10.5208 198.885 10.7578 198.821 11.0586C198.648 11.8607 198.138 12.2617 197.29 12.2617C196.907 12.2617 196.575 12.1387 196.292 11.8926C196.009 11.6374 195.868 11.3229 195.868 10.9492C195.868 10.6484 195.996 10.2747 196.251 9.82812C196.597 9.48177 197.295 9.04427 198.343 8.51562C199.4 7.98698 200.444 7.72266 201.474 7.72266ZM217.723 7.80469C218.343 7.80469 218.871 7.89583 219.309 8.07812C219.746 8.2513 220.102 8.50195 220.375 8.83008C220.658 9.14909 220.877 9.58203 221.032 10.1289C221.187 10.6758 221.291 11.2728 221.346 11.9199C221.41 12.5579 221.442 13.3372 221.442 14.2578V16.0352C221.442 17.3841 221.515 18.2409 221.66 18.6055C221.752 18.8516 222.335 19.0156 223.41 19.0977C223.474 19.1979 223.502 19.3711 223.492 19.6172C223.492 19.8633 223.465 20.0273 223.41 20.1094C222.162 19.9818 220.913 19.918 219.664 19.918C218.634 19.918 217.495 19.9818 216.246 20.1094C216.192 20.0273 216.16 19.8633 216.151 19.6172C216.151 19.3711 216.183 19.1979 216.246 19.0977C217.094 19.0339 217.568 18.8698 217.668 18.6055C217.814 18.2409 217.887 17.3841 217.887 16.0352V13.875C217.887 11.3047 217.276 10.0195 216.055 10.0195C215.535 10.0195 215.002 10.2018 214.455 10.5664C213.918 10.931 213.649 11.2591 213.649 11.5508V16.0352C213.649 17.3841 213.722 18.2409 213.867 18.6055C213.968 18.8607 214.487 19.0247 215.426 19.0977C215.49 19.1979 215.517 19.3711 215.508 19.6172C215.508 19.8633 215.481 20.0273 215.426 20.1094C214.177 19.9818 212.992 19.918 211.871 19.918C210.623 19.918 209.374 19.9818 208.125 20.1094C208.071 20.0273 208.039 19.8633 208.03 19.6172C208.03 19.3711 208.062 19.1979 208.125 19.0977C209.201 19.0156 209.784 18.8516 209.875 18.6055C210.021 18.2409 210.094 17.3841 210.094 16.0352V12.8906C210.094 11.7057 210.012 10.9583 209.848 10.6484C209.757 10.4753 209.497 10.3431 209.069 10.252C208.649 10.1517 208.335 10.1016 208.125 10.1016C208.08 10.0742 208.057 9.92839 208.057 9.66406C208.057 9.39062 208.089 9.25391 208.153 9.25391C209.101 9.18099 210.071 8.9987 211.065 8.70703C212.067 8.41536 212.874 8.11458 213.485 7.80469C213.567 7.80469 213.662 7.86393 213.772 7.98242C213.89 8.10091 213.95 8.19661 213.95 8.26953C213.931 8.33333 213.899 8.49284 213.854 8.74805C213.808 9.00326 213.767 9.24479 213.731 9.47266C213.694 9.70052 213.676 9.81901 213.676 9.82812C213.676 9.91927 213.685 9.97396 213.703 9.99219C213.74 9.99219 213.804 9.94661 213.895 9.85547C214.323 9.3724 214.92 8.91211 215.686 8.47461C216.461 8.02799 217.14 7.80469 217.723 7.80469Z" fill="#F3FFF1"/>
</svg>
