<svg viewBox="0 0 488 488" fill="none" xmlns="http://www.w3.org/2000/svg">
<path d="M307.827 260.845L307.83 260.842C314.944 251.991 318.796 240.818 319.578 227.197C340.007 221.662 355 203.073 355 181C355 154.468 333.413 133 306.792 133C280.17 133 258.583 154.468 258.583 181C258.583 203.612 274.281 222.541 295.432 227.661C294.732 235.649 292.551 241.585 289.086 245.885C284.731 251.285 277.964 254.605 269.317 256.792C260.666 258.981 250.573 259.935 239.892 260.925C224.096 262.375 206.991 263.966 193.395 270.733C193.012 270.924 192.63 271.119 192.25 271.319V191.49C213.032 186.171 228.417 167.378 228.417 145C228.417 118.468 206.83 97 180.208 97C153.587 97 132 118.468 132 145C132 167.378 147.385 186.171 168.167 191.49V296.51C147.385 301.829 132 320.622 132 343C132 369.532 153.587 391 180.208 391C206.83 391 228.417 369.532 228.417 343C228.417 322.262 215.254 304.645 196.774 297.905C198.955 295.165 201.596 293.455 204.215 292.131C213.489 287.49 226.962 286.156 242.084 284.731L242.086 284.731L242.329 284.708C254.231 283.596 266.672 282.433 277.983 279.23C289.431 275.989 299.966 270.597 307.827 260.845ZM156.083 145C156.083 131.764 166.877 121 180.208 121C193.54 121 204.333 131.764 204.333 145C204.333 158.236 193.54 169 180.208 169C166.877 169 156.083 158.236 156.083 145ZM204.333 343C204.333 356.236 193.54 367 180.208 367C166.877 367 156.083 356.236 156.083 343C156.083 329.815 166.827 319.052 180.103 319C180.104 319 180.105 319 180.107 319L180.423 319C193.642 319.106 204.333 329.868 204.333 343ZM330.917 181C330.917 192.116 323.279 201.488 312.895 204.204L306.608 204.999C293.361 204.901 282.667 194.176 282.667 181C282.667 167.764 293.46 157 306.792 157C320.123 157 330.917 167.764 330.917 181Z" fill="black" stroke="black" stroke-width="6"/>
<path fill-rule="evenodd" clip-rule="evenodd" d="M55 0C24.6243 0 0 24.6243 0 55V433C0 463.376 24.6243 488 55 488H433C463.376 488 488 463.376 488 433V55C488 24.6243 463.376 0 433 0H55ZM68 55C62.4772 55 58 59.4772 58 65V424C58 429.523 62.4771 434 68 434H419C424.523 434 429 429.523 429 424V65C429 59.4772 424.523 55 419 55H68Z" fill="black"/>
<path fill-rule="evenodd" clip-rule="evenodd" d="M55 0C24.6243 0 0 24.6243 0 55V433C0 463.376 24.6243 488 55 488H433C463.376 488 488 463.376 488 433V55C488 24.6243 463.376 0 433 0H55ZM68 55C62.4772 55 58 59.4772 58 65V424C58 429.523 62.4771 434 68 434H419C424.523 434 429 429.523 429 424V65C429 59.4772 424.523 55 419 55H68Z" fill="black"/>
</svg>
